<svg width="14" height="14" viewBox="0 0 14 14" fill="none" xmlns="http://www.w3.org/2000/svg">
<path d="M6.69666 2.04108C6.72133 1.9809 6.76335 1.92942 6.81736 1.89318C6.87138 1.85695 6.93495 1.8376 6.99999 1.8376C7.06504 1.8376 7.12861 1.85695 7.18262 1.89318C7.23664 1.92942 7.27866 1.9809 7.30333 2.04108L8.54291 5.0225C8.56611 5.07829 8.60426 5.12659 8.65314 5.1621C8.70203 5.1976 8.75976 5.21894 8.81999 5.22375L12.0388 5.48158C12.3299 5.50492 12.4477 5.86833 12.2261 6.05792L9.77374 8.15908C9.72793 8.19828 9.69378 8.24933 9.67506 8.30664C9.65633 8.36395 9.65374 8.42531 9.66758 8.484L10.4172 11.6252C10.4322 11.6883 10.4283 11.7543 10.4058 11.8151C10.3833 11.8759 10.3434 11.9287 10.2909 11.9667C10.2385 12.0048 10.176 12.0265 10.1112 12.029C10.0465 12.0316 9.98243 12.0149 9.92716 11.9811L7.17091 10.2982C7.11945 10.2667 7.0603 10.2501 6.99999 10.2501C6.93968 10.2501 6.88054 10.2667 6.82908 10.2982L4.07283 11.9817C4.01756 12.0155 3.95351 12.0322 3.88876 12.0296C3.82401 12.0271 3.76147 12.0054 3.70904 11.9673C3.65661 11.9292 3.61664 11.8765 3.59417 11.8157C3.57171 11.7549 3.56776 11.6889 3.58283 11.6258L4.33241 8.484C4.34631 8.42531 4.34376 8.36393 4.32503 8.30661C4.30629 8.24928 4.27211 8.19824 4.22624 8.15908L1.77391 6.05792C1.72453 6.01582 1.68875 5.96001 1.6711 5.89757C1.65346 5.83512 1.65474 5.76884 1.6748 5.70713C1.69485 5.64541 1.73276 5.59104 1.78374 5.55088C1.83472 5.51073 1.89647 5.48661 1.96116 5.48158L5.17999 5.22375C5.24022 5.21894 5.29796 5.1976 5.34684 5.1621C5.39573 5.12659 5.43387 5.07829 5.45708 5.0225L6.69666 2.04108Z" stroke="#FFB015" stroke-width="0.5" stroke-linecap="round" stroke-linejoin="round"/>
</svg>
